<svg id="Layer_1" enable-background="new 0 0 509.935 509.935" height="512" viewBox="0 0 509.935 509.935" width="512" xmlns="http://www.w3.org/2000/svg"><path d="m459.666 389.823c-2.297.074-4.633.112-6.944.112-75.624 0-143.179-35.17-187.201-90h127.201c33.085 0 60-26.916 60-60 0-16.025-6.239-31.093-17.573-42.428-7.714-7.712-17.157-13.066-27.456-15.7.021-.623.029-1.247.029-1.872 0-33.084-26.915-60-60-60-12.118 0-23.862 3.722-33.704 10.395-14.014-15.989-34.295-25.395-56.296-25.395-15.394 0-30.363 4.753-42.887 13.485 4.304-31.757 15.172-62.158 32.476-90.712l16.79-27.708-31.992 5.124c-59.306 9.5-113.538 39.513-152.709 84.509-39.773 45.689-61.679 104.394-61.679 165.303 0 48.432 13.403 94.894 38.896 135.425-21.935 2.99-38.896 21.833-38.896 44.575 0 24.814 20.187 45 45 45h89.893c36.735 19.638 78.175 30 120.107 30 77.838 0 150.423-34.897 199.14-95.745l20.353-25.423zm-201.945-254.887c17.2 0 32.649 9.585 40.317 25.016l10.938 22.008 14.573-19.789c5.727-7.775 14.536-12.234 24.172-12.234 16.542 0 30 13.458 30 30 0 3.425-.575 6.788-1.71 9.995l-7.08 20.005h23.79c8.015 0 15.548 3.12 21.213 8.786 5.667 5.667 8.787 13.2 8.787 21.214 0 16.542-13.458 30-30 30h-147.782c-17.175-29.624-28.186-63.241-31.296-99.086 4.261-20.917 22.517-35.915 44.078-35.915zm-210 299.999c0-8.271 6.729-15 15-15h30v-15c0-16.542 13.458-30 30-30s30 13.458 30 30v15h30c8.272 0 15 6.729 15 15 0 8.272-6.728 15-15 15h-120c-8.271 0-15-6.728-15-15zm225 45c-21.405 0-42.661-3.059-63.047-8.987 10.95-8.216 18.047-21.301 18.047-36.013 0-24.813-20.186-45-45-45h-1.897c-6.678-25.85-30.195-45-58.103-45-18.277 0-34.672 8.217-45.685 21.149-19.238-33.73-29.315-71.696-29.315-111.149 0-99.4 64.913-184.577 158.253-213.051-15.447 34.171-23.253 70.384-23.253 108.051 0 72.118 28.085 139.921 79.082 190.918 44.884 44.884 102.782 72.02 165.187 77.88-41.511 39.213-96.237 61.202-154.269 61.202z"/></svg>